<svg width="30" height="30" viewBox="0 0 30 30" fill="none" xmlns="http://www.w3.org/2000/svg">
<path d="M25.2 6.24996C23.875 4.92147 22.1185 4.11064 20.2479 3.96393C18.3773 3.81721 16.5159 4.3443 15 5.44996C13.4096 4.26701 11.43 3.7306 9.45989 3.94876C7.4898 4.16692 5.67554 5.12343 4.38246 6.62569C3.08938 8.12795 2.41352 10.0644 2.49099 12.045C2.56847 14.0256 3.39352 15.9033 4.79999 17.3L12.5625 25.075C13.2125 25.7147 14.088 26.0732 15 26.0732C15.912 26.0732 16.7875 25.7147 17.4375 25.075L25.2 17.3C26.6595 15.8315 27.4786 13.8453 27.4786 11.775C27.4786 9.70462 26.6595 7.71838 25.2 6.24996ZM23.4375 15.575L15.675 23.3375C15.5867 23.4267 15.4815 23.4975 15.3657 23.5458C15.2498 23.5941 15.1255 23.619 15 23.619C14.8745 23.619 14.7502 23.5941 14.6343 23.5458C14.5185 23.4975 14.4133 23.4267 14.325 23.3375L6.56249 15.5375C5.58219 14.5354 5.03326 13.1893 5.03326 11.7875C5.03326 10.3856 5.58219 9.03953 6.56249 8.03746C7.56144 7.0512 8.90871 6.49817 10.3125 6.49817C11.7163 6.49817 13.0635 7.0512 14.0625 8.03746C14.1787 8.15462 14.3169 8.24762 14.4693 8.31108C14.6216 8.37454 14.785 8.40721 14.95 8.40721C15.115 8.40721 15.2784 8.37454 15.4307 8.31108C15.583 8.24762 15.7213 8.15462 15.8375 8.03746C16.8364 7.0512 18.1837 6.49817 19.5875 6.49817C20.9913 6.49817 22.3385 7.0512 23.3375 8.03746C24.3313 9.0264 24.8982 10.3652 24.9169 11.7671C24.9356 13.1689 24.4045 14.5224 23.4375 15.5375V15.575Z" fill="#F5F5F5"/>
</svg>
