<svg width="109" height="29" viewBox="0 0 109 29" fill="none" xmlns="http://www.w3.org/2000/svg">
<path d="M0.199219 0.525391H5.80664V28H0.199219V0.525391ZM11.6686 14.1836C11.6686 12.1094 12.0495 10.2109 12.8112 8.48828C13.5729 6.76562 14.6393 5.28906 16.0104 4.05859C17.3932 2.81641 19.0455 1.85547 20.9674 1.17578C22.901 0.496094 25.0397 0.15625 27.3834 0.15625C29.7155 0.15625 31.8483 0.496094 33.7819 1.17578C35.7155 1.85547 37.3678 2.81641 38.7389 4.05859C40.1217 5.28906 41.194 6.76562 41.9557 8.48828C42.7174 10.2109 43.0983 12.1094 43.0983 14.1836C43.0983 16.2695 42.7174 18.1855 41.9557 19.9316C41.194 21.666 40.1217 23.1602 38.7389 24.4141C37.3678 25.668 35.7155 26.6465 33.7819 27.3496C31.8483 28.041 29.7155 28.3867 27.3834 28.3867C25.0397 28.3867 22.901 28.041 20.9674 27.3496C19.0455 26.6465 17.3932 25.668 16.0104 24.4141C14.6393 23.1602 13.5729 21.666 12.8112 19.9316C12.0495 18.1855 11.6686 16.2695 11.6686 14.1836ZM17.2409 14.1836C17.2409 15.6016 17.4928 16.8789 17.9967 18.0156C18.5123 19.1523 19.2213 20.125 20.1237 20.9336C21.0377 21.7305 22.11 22.3457 23.3405 22.7793C24.5827 23.2129 25.9303 23.4297 27.3834 23.4297C28.8366 23.4297 30.1784 23.2129 31.4088 22.7793C32.651 22.3457 33.7233 21.7305 34.6256 20.9336C35.528 20.125 36.237 19.1523 36.7526 18.0156C37.2682 16.8789 37.526 15.6016 37.526 14.1836C37.526 12.7656 37.2682 11.4941 36.7526 10.3691C36.237 9.24414 35.528 8.29492 34.6256 7.52148C33.7233 6.73633 32.651 6.13867 31.4088 5.72852C30.1784 5.31836 28.8366 5.11328 27.3834 5.11328C25.9303 5.11328 24.5827 5.31836 23.3405 5.72852C22.11 6.13867 21.0377 6.73633 20.1237 7.52148C19.2213 8.29492 18.5123 9.24414 17.9967 10.3691C17.4928 11.4941 17.2409 12.7656 17.2409 14.1836ZM57.9251 5.41211H47.7825V0.525391H73.6399V5.41211H63.4973V28H57.9251V5.41211ZM89.328 0.525391H95.2343L108.523 28H102.67L100.473 23.377H84.4238L82.2968 28H76.4257L89.328 0.525391ZM98.2753 18.7891L92.3339 6.30859L86.5507 18.7891H98.2753Z" fill="#F5F5F5"/>
</svg>
