<svg width="18" height="18" viewBox="0 0 18 18" fill="none" xmlns="http://www.w3.org/2000/svg">
<path d="M15.8906 4.21875H13.748C13.4687 1.84648 11.4461 0 9 0C6.55393 0 4.53132 1.84648 4.25201 4.21875H2.10938C1.72104 4.21875 1.40625 4.53354 1.40625 4.92188V17.2969C1.40625 17.6852 1.72104 18 2.10938 18H15.8906C16.279 18 16.5938 17.6852 16.5938 17.2969V4.92188C16.5938 4.53354 16.279 4.21875 15.8906 4.21875ZM9 1.40625C10.6694 1.40625 12.0593 2.62459 12.3279 4.21875H5.67214C5.94074 2.62459 7.33064 1.40625 9 1.40625ZM15.1875 16.5938H2.8125V5.625H4.21875V7.73438C4.21875 8.12271 4.53354 8.4375 4.92188 8.4375C5.31021 8.4375 5.625 8.12271 5.625 7.73438V5.625H12.375V7.73438C12.375 8.12271 12.6898 8.4375 13.0781 8.4375C13.4665 8.4375 13.7812 8.12271 13.7812 7.73438V5.625H15.1875V16.5938Z" fill="#F5F5F5"/>
</svg>
